<svg width="138" height="49" viewBox="0 0 138 49" fill="none" xmlns="http://www.w3.org/2000/svg">
<path d="M0.704024 33.0801C0.176484 33.2435 -0.118658 33.8037 0.0448046 34.3312L2.70859 42.928C2.87205 43.4555 3.43222 43.7507 3.95976 43.5872C4.4873 43.4237 4.78244 42.8636 4.61898 42.336L2.25117 34.6945L9.89273 32.3267C10.4203 32.1632 10.7154 31.603 10.552 31.0755C10.3885 30.5479 9.82832 30.2528 9.30078 30.4163L0.704024 33.0801ZM137 0.535248L136.155 -3.21865e-06C104.483 49.9826 47.5903 57.4525 1.46614 33.1505L1 34.0352L0.533862 34.92C47.4097 59.618 105.517 52.0879 137.845 1.0705L137 0.535248Z" fill="#2F2F2F"/>
</svg>
