<svg width="169" height="169" viewBox="0 0 169 169" fill="none" xmlns="http://www.w3.org/2000/svg">
<path d="M94.9502 43.8105L95.1689 44.6846L95.7949 44.0371L125.72 13.1035L113.895 54.4873L113.647 55.3525L114.513 55.1055L155.896 43.2793L124.963 73.2051L124.315 73.8311L125.188 74.0498L166.939 84.5L125.188 94.9502L124.315 95.1689L124.963 95.7949L155.896 125.72L114.513 113.895L113.647 113.647L113.895 114.513L125.72 155.896L95.7949 124.963L95.1689 124.315L94.9502 125.188L84.5 166.939L74.0498 125.188L73.8311 124.315L73.2051 124.963L43.2793 155.896L55.1055 114.513L55.3525 113.647L54.4873 113.895L13.1035 125.72L44.0371 95.7949L44.6846 95.1689L43.8105 94.9502L2.05957 84.5L43.8105 74.0498L44.6846 73.8311L44.0371 73.2051L13.1035 43.2793L54.4873 55.1055L55.3525 55.3525L55.1055 54.4873L43.2793 13.1035L73.2051 44.0371L73.8311 44.6846L74.0498 43.8105L84.5 2.05957L94.9502 43.8105Z" stroke="#2F2F2F"/>
</svg>
