<svg width="100" height="81" viewBox="0 0 100 81" fill="none" xmlns="http://www.w3.org/2000/svg">
<path d="M63.6042 0.5C66.6551 0.5 69.3804 0.583288 71.7791 0.750977C74.1806 0.918879 76.3418 1.21319 78.2605 1.63574C80.1708 1.97342 81.9223 2.43836 83.5125 3.03223C85.1048 3.62698 86.5746 4.39236 87.9207 5.32812L88.6189 5.78613C92.0578 8.12871 94.6842 11.2588 96.4939 15.167H96.4929C98.5016 19.3272 99.4997 24.0684 99.4998 29.3799C99.4998 34.6943 98.4591 39.4779 96.3679 43.7207C94.3571 47.9673 91.5005 51.2533 87.7947 53.5586C86.4529 54.4084 85.0277 55.1303 83.5203 55.7246L83.5085 55.7295L83.4968 55.7334C81.989 56.2429 80.2792 56.6643 78.3699 57.001L78.3708 57.002C76.5393 57.3395 74.4236 57.5902 72.0261 57.7578C70.6833 57.8549 66.757 57.8416 63.0886 57.8125C59.097 57.7808 55.8631 54.5211 55.863 50.5293V50.2383C55.863 46.2429 59.1021 43.0286 63.0945 43.0371C66.5562 43.0445 70.0844 43.0213 71.3044 42.8867C73.4928 42.5578 75.2938 42.0686 76.7185 41.4268L76.7312 41.4209L76.7449 41.415C79.0266 40.5376 80.7891 39.0686 82.0466 36.9971L82.0535 36.9854L82.2966 36.5918C83.4734 34.5992 84.0701 32.2429 84.0701 29.5049C84.0701 25.9732 83.4208 23.2909 82.1794 21.4033L82.1755 21.3975L82.1716 21.3906C80.9918 19.4771 79.3855 18.0877 77.3435 17.2119L77.3367 17.209C75.3441 16.3203 73.0606 15.7905 70.4792 15.627L70.4636 15.625C67.8487 15.3765 65.1918 15.252 62.4939 15.252H46.9021C42.9088 15.2518 39.6716 12.0148 39.6716 8.02148V7.73047C39.6718 3.73726 42.9089 0.500162 46.9021 0.5H63.6042Z" fill="#191919" stroke="url(#paint0_linear_183_320)"/>
<path d="M15.8203 0.5L16.0547 0.505859C18.4523 0.62764 20.3592 2.61022 20.3594 5.03809V41.4873C20.3594 43.4414 21.9433 45.0253 23.8975 45.0254H41.8779C44.3845 45.0254 46.417 47.0579 46.417 49.5645V55.7314C46.4167 58.2377 44.3843 60.2695 41.8779 60.2695H5.03809C2.53189 60.2693 0.500262 58.2376 0.5 55.7314V5.03809C0.500203 2.53186 2.53186 0.500203 5.03809 0.5H15.8203Z" fill="url(#paint1_linear_183_320)" stroke="url(#paint2_linear_183_320)"/>
<rect x="-0.5" y="0.5" width="22.6106" height="58.3445" rx="6.23077" transform="matrix(-1 0 0 1 62.7461 21.6558)" fill="#191919"/>
<rect x="-0.5" y="0.5" width="22.6106" height="58.3445" rx="6.23077" transform="matrix(-1 0 0 1 62.7461 21.6558)" stroke="url(#paint3_linear_183_320)"/>
<defs>
<linearGradient id="paint0_linear_183_320" x1="69.5858" y1="1" x2="69.5858" y2="57.334" gradientUnits="userSpaceOnUse">
<stop stop-color="#42D9FF"/>
<stop offset="1" stop-color="#4EE3D6"/>
</linearGradient>
<linearGradient id="paint1_linear_183_320" x1="23.4584" y1="1" x2="23.4584" y2="59.7694" gradientUnits="userSpaceOnUse">
<stop stop-color="#42D9FF"/>
<stop offset="1" stop-color="#4EE3D6"/>
</linearGradient>
<linearGradient id="paint2_linear_183_320" x1="23.4584" y1="1" x2="23.4584" y2="59.7694" gradientUnits="userSpaceOnUse">
<stop stop-color="#42D9FF"/>
<stop offset="1" stop-color="#4EE3D6"/>
</linearGradient>
<linearGradient id="paint3_linear_183_320" x1="11.8053" y1="0" x2="11.8053" y2="59.3445" gradientUnits="userSpaceOnUse">
<stop stop-color="#42D9FF"/>
<stop offset="1" stop-color="#4EE3D6"/>
</linearGradient>
</defs>
</svg>
