<svg width="32" height="32" viewBox="0 0 32 32" fill="none" xmlns="http://www.w3.org/2000/svg">
<rect width="32" height="32" rx="16" fill="#EDEDED"/>
<path d="M16.0012 11.0933C17.5034 11.0933 18.5167 11.7422 19.0945 12.2844L21.3523 10.08C19.9656 8.79111 18.1612 8 16.0012 8C12.8723 8 10.17 9.79556 8.85449 12.4089L11.4412 14.4178C12.09 12.4889 13.8856 11.0933 16.0012 11.0933Z" fill="#EA4335"/>
<path d="M23.68 16.1775C23.68 15.5198 23.6267 15.0398 23.5111 14.542H16V17.5109H20.4089C20.32 18.2487 19.84 19.3598 18.7733 20.1064L21.2978 22.062C22.8089 20.6664 23.68 18.6131 23.68 16.1775Z" fill="#4285F4"/>
<path d="M11.4489 17.5815C11.28 17.0838 11.1822 16.5504 11.1822 15.9993C11.1822 15.4482 11.28 14.9149 11.44 14.4171L8.85333 12.4082C8.31111 13.4926 8 14.7104 8 15.9993C8 17.2882 8.31111 18.506 8.85333 19.5904L11.4489 17.5815Z" fill="#FBBC05"/>
<path d="M16.0001 23.9998C18.1601 23.9998 19.9734 23.2887 21.2979 22.062L18.7734 20.1065C18.0979 20.5776 17.1912 20.9065 16.0001 20.9065C13.8845 20.9065 12.089 19.5109 11.449 17.582L8.8623 19.5909C10.1779 22.2043 12.8712 23.9998 16.0001 23.9998Z" fill="#34A853"/>
</svg>
