<svg width="52" height="52" viewBox="0 0 52 52" fill="none" xmlns="http://www.w3.org/2000/svg">
<rect x="0.5" y="0.5" width="51" height="51" rx="25.5" stroke="#2F2F2F"/>
<path d="M27.375 34.9375H24.625C24.4427 34.9375 24.2678 35.0099 24.1389 35.1389C24.01 35.2678 23.9375 35.4427 23.9375 35.625C23.9375 35.8073 24.01 35.9822 24.1389 36.1111C24.2678 36.2401 24.4427 36.3125 24.625 36.3125H27.375C27.5574 36.3125 27.7322 36.2401 27.8612 36.1111C27.9901 35.9822 28.0625 35.8073 28.0625 35.625C28.0625 35.4427 27.9901 35.2678 27.8612 35.1389C27.7322 35.0099 27.5574 34.9375 27.375 34.9375ZM28.0625 32.875H23.9375C23.7552 32.875 23.5803 32.9474 23.4514 33.0764C23.3225 33.2053 23.25 33.3802 23.25 33.5625C23.25 33.7448 23.3225 33.9197 23.4514 34.0486C23.5803 34.1776 23.7552 34.25 23.9375 34.25H28.0625C28.2449 34.25 28.4197 34.1776 28.5487 34.0486C28.6776 33.9197 28.75 33.7448 28.75 33.5625C28.75 33.3802 28.6776 33.2053 28.5487 33.0764C28.4197 32.9474 28.2449 32.875 28.0625 32.875ZM30.8735 17.6937C29.5815 16.3999 27.8507 15.6875 26 15.6875C25.0966 15.6853 24.2016 15.8617 23.3665 16.2064C22.5314 16.5512 21.7727 17.0575 21.1339 17.6963C20.495 18.3352 19.9887 19.0939 19.644 19.929C19.2992 20.7641 19.1229 21.659 19.125 22.5625C19.125 24.5657 19.8929 26.4396 21.2305 27.7033L21.4178 27.879C22.1917 28.6026 23.25 29.5939 23.25 30.4687V31.5C23.25 31.6823 23.3225 31.8572 23.4514 31.9861C23.5803 32.1151 23.7552 32.1875 23.9375 32.1875H24.9688C25.0599 32.1875 25.1474 32.1513 25.2118 32.0868C25.2763 32.0223 25.3125 31.9349 25.3125 31.8437V26.8087C25.3125 26.7391 25.2915 26.6713 25.2521 26.614C25.2128 26.5566 25.157 26.5126 25.0921 26.4877C24.6951 26.3257 24.318 26.1188 23.968 25.8711C23.8894 25.8209 23.8218 25.7552 23.7694 25.678C23.7169 25.6008 23.6808 25.5138 23.663 25.4222C23.6453 25.3306 23.6465 25.2363 23.6663 25.1452C23.6862 25.054 23.7244 24.9678 23.7787 24.8919C23.8329 24.816 23.9021 24.7519 23.9819 24.7036C24.0617 24.6553 24.1505 24.6237 24.2429 24.6108C24.3353 24.5979 24.4294 24.6039 24.5194 24.6285C24.6094 24.6531 24.6934 24.6958 24.7664 24.7539C25.0844 24.9791 25.6967 25.3125 26 25.3125C26.3034 25.3125 26.9157 24.9782 27.2345 24.7539C27.383 24.6606 27.5615 24.6275 27.7335 24.6614C27.9055 24.6954 28.0581 24.7938 28.16 24.9365C28.2619 25.0792 28.3054 25.2555 28.2816 25.4292C28.2578 25.6029 28.1685 25.761 28.032 25.8711C27.682 26.1184 27.3049 26.3248 26.9079 26.4864C26.8431 26.5113 26.7873 26.5554 26.7479 26.6127C26.7086 26.67 26.6875 26.7379 26.6875 26.8074V31.8437C26.6875 31.9349 26.7237 32.0223 26.7882 32.0868C26.8527 32.1513 26.9401 32.1875 27.0313 32.1875H28.0625C28.2449 32.1875 28.4197 32.1151 28.5487 31.9861C28.6776 31.8572 28.75 31.6823 28.75 31.5V30.4687C28.75 29.6145 29.7967 28.6241 30.5612 27.9005L30.7721 27.7003C32.148 26.3867 32.875 24.6082 32.875 22.5625C32.8796 21.659 32.705 20.7635 32.3615 19.9278C32.018 19.0921 31.5122 18.3328 30.8735 17.6937Z" fill="url(#paint0_linear_198_1217)"/>
<defs>
<linearGradient id="paint0_linear_198_1217" x1="26.0001" y1="15.6875" x2="26.0001" y2="36.3125" gradientUnits="userSpaceOnUse">
<stop stop-color="#42D9FF"/>
<stop offset="1" stop-color="#4EE3D6"/>
</linearGradient>
</defs>
</svg>
