<svg width="42" height="34" viewBox="0 0 42 34" fill="none" xmlns="http://www.w3.org/2000/svg">
<path d="M26.5527 0.5L27.4658 0.506836C28.3545 0.519702 29.1696 0.55174 29.9102 0.603516C30.9023 0.672891 31.8001 0.794287 32.6006 0.970703L32.5996 0.97168C33.3893 1.11199 34.1178 1.30362 34.7822 1.55176C35.4502 1.80125 36.0682 2.12338 36.6357 2.5166L36.9297 2.70898C38.3766 3.69468 39.4818 5.01224 40.2422 6.65137L40.3955 6.98047C41.1357 8.64386 41.5 10.5151 41.5 12.584C41.5 14.7908 41.0671 16.7871 40.1924 18.5635L40.1934 18.5645C39.3504 20.3445 38.1476 21.7308 36.583 22.7041C36.0198 23.0607 35.4216 23.3633 34.79 23.6123L34.7666 23.6201C34.134 23.8339 33.4211 24.0099 32.6299 24.1494L32.6289 24.1484C31.8688 24.2883 30.9954 24.3921 30.0107 24.4609L30.0117 24.4619C29.4558 24.5022 27.8716 24.4968 26.3994 24.4854C24.5748 24.4711 23.0967 22.9809 23.0967 21.1562C23.0969 19.3283 24.5795 17.8589 26.4043 17.8623C27.8118 17.865 29.1997 17.8539 29.666 17.8018C30.5353 17.6701 31.2378 17.4767 31.7842 17.2305L31.7969 17.2246L31.8096 17.2197C32.6803 16.8849 33.3481 16.3282 33.8271 15.5391L33.834 15.5273C34.3443 14.7361 34.6103 13.7794 34.6104 12.6348C34.6104 11.2241 34.3495 10.194 33.8867 9.49023L33.8789 9.47852C33.429 8.7488 32.8207 8.22282 32.0439 7.88965L32.0371 7.88672C31.2609 7.54053 30.3643 7.33053 29.3398 7.26562L29.3242 7.26367C28.2665 7.16316 27.1916 7.11328 26.0996 7.11328H19.7949C17.9687 7.11328 16.4883 5.63283 16.4883 3.80664C16.4883 1.98044 17.9687 0.5 19.7949 0.5H26.5527Z" fill="#191919" stroke="#EDEDED"/>
<path d="M4.84863 0.5C7.25036 0.5 9.19717 2.44693 9.19727 4.84863V15.1357C9.19749 17.0898 10.7822 18.6738 12.7363 18.6738H16.4268C18.3082 18.6739 19.833 20.1995 19.833 22.0811C19.8328 23.9624 18.3081 25.4872 16.4268 25.4873H5.03809C2.53176 25.4871 0.500038 23.4556 0.5 20.9492V4.84863C0.500099 2.44699 2.44699 0.500099 4.84863 0.5Z" fill="#EDEDED" stroke="#EDEDED"/>
<rect x="-0.5" y="0.5" width="8.637" height="23.2223" rx="4.3185" transform="matrix(-1 0 0 1 25.6113 9.43085)" fill="#191919"/>
<rect x="-0.5" y="0.5" width="8.637" height="23.2223" rx="4.3185" transform="matrix(-1 0 0 1 25.6113 9.43085)" stroke="#EDEDED"/>
</svg>
