<svg width="35" height="28" viewBox="0 0 35 28" fill="none" xmlns="http://www.w3.org/2000/svg">
<path d="M21.9668 0.511719C23.0092 0.511725 23.9434 0.540104 24.7676 0.59668C25.588 0.653016 26.3318 0.75181 26.9971 0.894531L27.4883 0.990234C27.9693 1.09362 28.4211 1.22231 28.8428 1.37695C29.4027 1.58229 29.9216 1.84697 30.3984 2.1709H30.3994C31.7366 2.99908 32.7484 4.14076 33.4307 5.58398C34.1392 7.02387 34.4882 8.65765 34.4883 10.4736C34.4883 12.2899 34.1252 13.9359 33.3906 15.4014C33.035 16.1389 32.5447 16.8662 32.0352 17.4756C31.5304 18.0793 30.9823 18.5974 30.5 18.8936C29.6393 19.4219 29.0203 19.7885 27.5762 20.1719C26.8254 20.3711 25.7694 20.4399 24.9355 20.4629C24.5116 20.4746 24.132 20.4746 23.8584 20.4717C23.7216 20.4702 23.611 20.4677 23.5342 20.4658C23.4958 20.4649 23.4659 20.4645 23.4453 20.4639C23.4414 20.4638 23.4378 20.463 23.4346 20.4629C22.6387 20.5166 21.748 20.4629 20.7441 20.4629H20.2568V14.5068H20.7441C21.2802 14.5068 22.0818 14.5352 22.8105 14.5488C23.5667 14.563 24.2268 14.5602 24.5557 14.5117C24.7517 14.4828 24.9373 14.4608 25.1084 14.4404C25.2819 14.4198 25.4378 14.4013 25.585 14.3799C25.8805 14.3369 26.1072 14.2855 26.2979 14.2012L26.3096 14.1963L26.3223 14.1914C27.0342 13.9226 27.5773 13.4767 27.9668 12.8467L27.9736 12.835C28.3887 12.2031 28.6064 11.4373 28.6064 10.5156C28.6064 9.37171 28.3915 8.5483 28.0186 7.99121L28.0137 7.98535L28.0107 7.97852C27.6448 7.39565 27.1491 6.97517 26.5146 6.70801L26.5088 6.70508C25.8706 6.4256 25.1313 6.25583 24.2842 6.20312L24.2764 6.20215H24.2695C23.3905 6.12012 22.4966 6.0791 21.5889 6.0791H16.2959C14.7589 6.0791 13.512 4.83284 13.5117 3.2959C13.5117 1.75874 14.7587 0.511719 16.2959 0.511719H21.9668Z" fill="#191919" stroke="url(#paint0_linear_708_864)" stroke-width="0.975664"/>
<path d="M5.28516 0C6.12277 0 6.80171 0.678998 6.80176 1.5166V12.9404C6.80196 13.7778 7.48093 14.4569 8.31836 14.457H14V21H1.5166C0.679026 21 4.63829e-05 20.321 0 19.4834V1.5166C4.61252e-05 0.679026 0.679026 4.59964e-05 1.5166 0H5.28516Z" fill="url(#paint1_linear_708_864)"/>
<path d="M5.28516 0C6.12277 0 6.80171 0.678998 6.80176 1.5166V12.9404C6.80196 13.7778 7.48093 14.4569 8.31836 14.457H14V21H1.5166C0.679026 21 4.63829e-05 20.321 0 19.4834V1.5166C4.61252e-05 0.679026 0.679026 4.59964e-05 1.5166 0H5.28516Z" stroke="url(#paint2_linear_708_864)"/>
<rect x="-0.487832" y="0.487832" width="7.02434" height="19.0243" rx="2.76438" transform="matrix(-1 0 0 1 20.0243 8)" fill="#191919"/>
<rect x="-0.487832" y="0.487832" width="7.02434" height="19.0243" rx="2.76438" transform="matrix(-1 0 0 1 20.0243 8)" stroke="url(#paint3_linear_708_864)" stroke-width="0.975664"/>
<defs>
<linearGradient id="paint0_linear_708_864" x1="24" y1="1" x2="24" y2="20" gradientUnits="userSpaceOnUse">
<stop stop-color="#42D9FF"/>
<stop offset="1" stop-color="#4EE3D6"/>
</linearGradient>
<linearGradient id="paint1_linear_708_864" x1="7" y1="0" x2="7" y2="21" gradientUnits="userSpaceOnUse">
<stop stop-color="#42D9FF"/>
<stop offset="1" stop-color="#4EE3D6"/>
</linearGradient>
<linearGradient id="paint2_linear_708_864" x1="7" y1="0" x2="7" y2="21" gradientUnits="userSpaceOnUse">
<stop stop-color="#42D9FF"/>
<stop offset="1" stop-color="#4EE3D6"/>
</linearGradient>
<linearGradient id="paint3_linear_708_864" x1="4" y1="0" x2="4" y2="20" gradientUnits="userSpaceOnUse">
<stop stop-color="#42D9FF"/>
<stop offset="1" stop-color="#4EE3D6"/>
</linearGradient>
</defs>
</svg>
