<svg width="146" height="29" viewBox="0 0 146 29" fill="none" xmlns="http://www.w3.org/2000/svg">
<path d="M31.2053 12.6596C31.2053 11.3358 31.426 10.1169 31.8673 9.00318C32.3086 7.86842 32.918 6.89127 33.6955 6.07172C34.494 5.25217 35.4397 4.61124 36.5324 4.14893C37.6251 3.68661 38.8124 3.45546 40.0943 3.45546C41.3551 3.45546 42.4374 3.67611 43.341 4.1174C44.2446 4.53769 45.0641 5.23115 45.7996 6.1978V3.86524H49.6452V21.328H45.7996V19.0584C44.9591 20.0251 44.087 20.7186 43.1834 21.1388C42.3008 21.5381 41.2396 21.7377 39.9997 21.7377C38.7179 21.7377 37.5411 21.5171 36.4694 21.0758C35.3976 20.6135 34.473 19.9831 33.6955 19.1845C32.918 18.365 32.3086 17.4088 31.8673 16.3161C31.426 15.2023 31.2053 13.9835 31.2053 12.6596ZM35.4292 12.7542C35.4292 13.5107 35.5552 14.2042 35.8074 14.8346C36.0596 15.465 36.4063 16.0114 36.8476 16.4737C37.3099 16.915 37.8563 17.2617 38.4867 17.5139C39.1381 17.7661 39.8421 17.8922 40.5986 17.8922C41.3551 17.8922 42.0381 17.7661 42.6475 17.5139C43.2779 17.2617 43.8138 16.9045 44.2551 16.4422C44.7174 15.9799 45.0641 15.4335 45.2953 14.8031C45.5475 14.1516 45.6735 13.4372 45.6735 12.6596C45.6735 11.8611 45.5475 11.1361 45.2953 10.4847C45.0431 9.83324 44.6859 9.27637 44.2236 8.81406C43.7613 8.33073 43.2044 7.96299 42.5529 7.71082C41.9225 7.43763 41.2291 7.30104 40.4725 7.30104C39.7371 7.30104 39.0541 7.43763 38.4237 7.71082C37.8143 7.984 37.2889 8.36225 36.8476 8.84558C36.4063 9.3289 36.0596 9.90679 35.8074 10.5792C35.5552 11.2307 35.4292 11.9557 35.4292 12.7542Z" fill="#EDEDED"/>
<path d="M56.6427 22.7464C57.2521 23.4189 57.8825 23.8917 58.5339 24.1649C59.2064 24.4591 60.0364 24.6062 61.0241 24.6062C62.6002 24.6062 63.8085 24.1754 64.649 23.3138C65.4896 22.4522 65.9099 21.2124 65.9099 19.5943V19.0269C65.0903 19.9936 64.2393 20.687 63.3567 21.1073C62.4741 21.5276 61.4129 21.7377 60.173 21.7377C58.9332 21.7377 57.7879 21.5066 56.7372 21.0443C55.6865 20.582 54.7829 19.941 54.0264 19.1215C53.2699 18.3019 52.671 17.3248 52.2297 16.19C51.8094 15.0552 51.5993 13.8154 51.5993 12.4705C51.5993 11.1676 51.8094 9.96983 52.2297 8.8771C52.671 7.78437 53.2699 6.83873 54.0264 6.0402C54.8039 5.22064 55.718 4.59022 56.7687 4.14893C57.8194 3.68661 58.9647 3.45546 60.2045 3.45546C62.7052 3.45546 64.607 4.32755 65.9099 6.07172V3.86524H69.9131V18.0182C69.9131 21.4225 69.1566 23.9862 67.6435 25.7094C66.1305 27.4326 63.8715 28.2941 60.8665 28.2941C58.7231 28.2941 56.8633 27.8108 55.2872 26.8442C53.7322 25.8985 52.5974 24.5326 51.883 22.7464H56.6427ZM60.7404 17.8922C62.2534 17.8922 63.4617 17.4193 64.3653 16.4737C65.2689 15.5071 65.7208 14.2147 65.7208 12.5966C65.7208 11.7981 65.5947 11.0836 65.3425 10.4532C65.1113 9.80172 64.7646 9.24485 64.3023 8.78254C63.861 8.29921 63.3251 7.93146 62.6947 7.6793C62.0643 7.42713 61.3708 7.30104 60.6143 7.30104C59.1643 7.30104 57.9981 7.79487 57.1155 8.78254C56.2539 9.74919 55.8231 11.0416 55.8231 12.6596C55.8231 14.2567 56.2644 15.5281 57.147 16.4737C58.0296 17.4193 59.2274 17.8922 60.7404 17.8922Z" fill="#EDEDED"/>
<path d="M89.648 16.1585C89.3959 16.978 88.9966 17.7345 88.4502 18.428C87.9039 19.1005 87.2629 19.6889 86.5274 20.1932C85.7919 20.6765 84.9829 21.0548 84.1003 21.328C83.2177 21.6011 82.2931 21.7377 81.3264 21.7377C80.0025 21.7377 78.7627 21.5066 77.6069 21.0443C76.4512 20.582 75.4425 19.941 74.5809 19.1215C73.7403 18.3019 73.0784 17.3458 72.5951 16.2531C72.1117 15.1393 71.8701 13.9415 71.8701 12.6596C71.8701 11.3778 72.1012 10.18 72.5636 9.06623C73.0469 7.93147 73.6983 6.95431 74.5179 6.13476C75.3584 5.29419 76.3356 4.64276 77.4493 4.18045C78.5841 3.69712 79.7924 3.45546 81.0743 3.45546C82.3771 3.45546 83.5749 3.69712 84.6677 4.18045C85.7814 4.64276 86.7376 5.29419 87.5361 6.13476C88.3346 6.95431 88.9546 7.94197 89.3959 9.09775C89.8582 10.2325 90.0893 11.4828 90.0893 12.8488C90.0893 13.185 90.0788 13.4687 90.0578 13.6998C90.0368 13.91 89.9948 14.1621 89.9317 14.4563H76.4091C76.6613 15.5281 77.2077 16.3686 78.0482 16.978C78.9098 17.5874 79.971 17.8922 81.2319 17.8922C82.1145 17.8922 82.8395 17.7661 83.4068 17.5139C83.9742 17.2407 84.5311 16.7889 85.0775 16.1585H89.648ZM85.96 10.7684C85.6869 9.63361 85.1405 8.77203 84.3209 8.18363C83.5014 7.59524 82.4402 7.30104 81.1373 7.30104C79.8765 7.30104 78.8363 7.59524 78.0167 8.18363C77.1972 8.77203 76.6193 9.63361 76.2831 10.7684H85.96Z" fill="#EDEDED"/>
<path d="M92.037 3.86524H95.9141V5.53586C96.6916 4.77935 97.4481 4.24349 98.1836 3.92828C98.9401 3.61307 99.8227 3.45546 100.831 3.45546C103.164 3.45546 104.866 4.13842 105.938 5.50434C107.01 6.87025 107.545 9.0242 107.545 11.9662V21.328H103.353V12.7857C103.353 10.8314 103.09 9.43397 102.565 8.59341C102.061 7.73183 101.21 7.30104 100.012 7.30104C98.688 7.30104 97.7213 7.76335 97.1119 8.68797C96.5235 9.59158 96.2293 11.0626 96.2293 13.1009V21.328H92.037V3.86524Z" fill="#EDEDED"/>
<path d="M127.424 15.5911C126.689 17.5664 125.565 19.09 124.052 20.1617C122.56 21.2124 120.794 21.7377 118.756 21.7377C117.474 21.7377 116.266 21.5066 115.131 21.0443C113.996 20.5609 112.998 19.9095 112.137 19.09C111.296 18.2494 110.634 17.2722 110.151 16.1585C109.667 15.0447 109.426 13.8574 109.426 12.5966C109.426 11.3147 109.657 10.1169 110.119 9.00318C110.603 7.88944 111.254 6.92279 112.074 6.10324C112.914 5.28369 113.891 4.64276 115.005 4.18045C116.14 3.69712 117.348 3.45546 118.63 3.45546C120.731 3.45546 122.549 4.00183 124.083 5.09456C125.617 6.18729 126.731 7.72132 127.424 9.69665H122.696C121.856 8.09958 120.5 7.30104 118.63 7.30104C117.895 7.30104 117.222 7.43763 116.613 7.71082C116.003 7.96299 115.478 8.32023 115.037 8.78254C114.595 9.24485 114.249 9.80172 113.996 10.4532C113.765 11.0836 113.65 11.7876 113.65 12.5651C113.65 13.3216 113.776 14.0256 114.028 14.677C114.28 15.3284 114.637 15.8958 115.1 16.3791C115.562 16.8414 116.098 17.2092 116.707 17.4824C117.338 17.7556 118.01 17.8922 118.725 17.8922C119.607 17.8922 120.353 17.7135 120.963 17.3563C121.593 16.978 122.171 16.3896 122.696 15.5911H127.424Z" fill="#EDEDED"/>
<path d="M134.107 19.6889L127.708 3.86524H132.499L136.376 15.1813L140.6 3.86524H145.423L135.336 27.1594H130.829L134.107 19.6889Z" fill="#EDEDED"/>
<path d="M21.9668 0.511734C23.0092 0.51174 23.9434 0.540119 24.7676 0.596695C25.588 0.653031 26.3318 0.751826 26.9971 0.894547L27.4883 0.99025C27.9693 1.09364 28.4211 1.22232 28.8428 1.37697C29.4027 1.5823 29.9216 1.84699 30.3984 2.17091H30.3994C31.7366 2.99909 32.7484 4.14077 33.4307 5.584C34.1392 7.02388 34.4882 8.65767 34.4883 10.4736C34.4883 12.2899 34.1252 13.9359 33.3906 15.4014C33.035 16.1389 32.5447 16.8662 32.0352 17.4756C31.5304 18.0793 30.9823 18.5974 30.5 18.8936C29.6393 19.4219 29.0203 19.7886 27.5762 20.1719C26.8254 20.3712 25.7694 20.44 24.9355 20.4629C24.5116 20.4746 24.132 20.4746 23.8584 20.4717C23.7216 20.4702 23.611 20.4677 23.5342 20.4658C23.4958 20.4649 23.4659 20.4645 23.4453 20.4639C23.4414 20.4638 23.4378 20.463 23.4346 20.4629C22.6387 20.5166 21.748 20.4629 20.7441 20.4629H20.2568V14.5069H20.7441C21.2802 14.5069 22.0818 14.5352 22.8105 14.5488C23.5667 14.563 24.2268 14.5602 24.5557 14.5117C24.7517 14.4828 24.9373 14.4608 25.1084 14.4404C25.2819 14.4198 25.4378 14.4013 25.585 14.3799C25.8805 14.3369 26.1072 14.2855 26.2979 14.2012L26.3096 14.1963L26.3223 14.1914C27.0342 13.9226 27.5773 13.4767 27.9668 12.8467L27.9736 12.835C28.3887 12.2031 28.6064 11.4373 28.6064 10.5156C28.6064 9.37173 28.3915 8.54832 28.0186 7.99123L28.0137 7.98537L28.0107 7.97853C27.6448 7.39566 27.1491 6.97519 26.5146 6.70802L26.5088 6.70509C25.8706 6.42561 25.1313 6.25584 24.2842 6.20314L24.2764 6.20216H24.2695C23.3905 6.12014 22.4966 6.07912 21.5889 6.07912H16.2959C14.7589 6.07912 13.512 4.83286 13.5117 3.29591C13.5117 1.75876 14.7587 0.511734 16.2959 0.511734H21.9668Z" fill="#191919" stroke="url(#paint0_linear_553_332)" stroke-width="0.975664"/>
<path d="M5.28516 1.52588e-05C6.12277 1.52588e-05 6.80171 0.679013 6.80176 1.51662V12.9404C6.80196 13.7779 7.48093 14.4569 8.31836 14.457H14V21H1.5166C0.679026 21 4.63829e-05 20.321 0 19.4834V1.51662C4.61252e-05 0.679042 0.679026 6.12552e-05 1.5166 1.52588e-05H5.28516Z" fill="url(#paint1_linear_553_332)"/>
<path d="M5.28516 1.52588e-05C6.12277 1.52588e-05 6.80171 0.679013 6.80176 1.51662V12.9404C6.80196 13.7779 7.48093 14.4569 8.31836 14.457H14V21H1.5166C0.679026 21 4.63829e-05 20.321 0 19.4834V1.51662C4.61252e-05 0.679042 0.679026 6.12552e-05 1.5166 1.52588e-05H5.28516Z" stroke="url(#paint2_linear_553_332)"/>
<rect x="-0.487832" y="0.487832" width="7.02434" height="19.0243" rx="2.76438" transform="matrix(-1 0 0 1 20.0243 8.00002)" fill="#191919"/>
<rect x="-0.487832" y="0.487832" width="7.02434" height="19.0243" rx="2.76438" transform="matrix(-1 0 0 1 20.0243 8.00002)" stroke="url(#paint3_linear_553_332)" stroke-width="0.975664"/>
<defs>
<linearGradient id="paint0_linear_553_332" x1="24" y1="1.00002" x2="24" y2="20" gradientUnits="userSpaceOnUse">
<stop stop-color="#42D9FF"/>
<stop offset="1" stop-color="#4EE3D6"/>
</linearGradient>
<linearGradient id="paint1_linear_553_332" x1="7" y1="1.52588e-05" x2="7" y2="21" gradientUnits="userSpaceOnUse">
<stop stop-color="#42D9FF"/>
<stop offset="1" stop-color="#4EE3D6"/>
</linearGradient>
<linearGradient id="paint2_linear_553_332" x1="7" y1="1.52588e-05" x2="7" y2="21" gradientUnits="userSpaceOnUse">
<stop stop-color="#42D9FF"/>
<stop offset="1" stop-color="#4EE3D6"/>
</linearGradient>
<linearGradient id="paint3_linear_553_332" x1="4" y1="0" x2="4" y2="20" gradientUnits="userSpaceOnUse">
<stop stop-color="#42D9FF"/>
<stop offset="1" stop-color="#4EE3D6"/>
</linearGradient>
</defs>
</svg>
