<svg width="16" height="16" viewBox="0 0 16 16" fill="none" xmlns="http://www.w3.org/2000/svg">
<path d="M8.39174 13.4897C8.1505 13.3372 7.848 13.3372 7.60677 13.4898L3.90695 15.8298C3.33349 16.1924 2.62456 15.6558 2.77694 14.9744L3.75782 10.5881C3.82154 10.3031 3.72915 10.0048 3.51768 9.81259L0.261011 6.85321C-0.243443 6.39481 0.0277431 5.52896 0.694269 5.4699L4.98608 5.0896C5.26556 5.06484 5.50903 4.88091 5.61884 4.6116L7.30316 0.480837C7.56458 -0.16028 8.43543 -0.160279 8.69684 0.480838L10.3812 4.6116C10.491 4.88091 10.7344 5.06484 11.0139 5.0896L15.3057 5.4699C15.9723 5.52896 16.2434 6.39481 15.739 6.85321L12.4823 9.81259C12.2709 10.0048 12.1785 10.3031 12.2422 10.5881L13.2231 14.9747C13.3755 15.6561 12.6667 16.1927 12.0932 15.8301L8.39174 13.4897Z" fill="#FFC500"/>
</svg>
