<svg width="32" height="32" viewBox="0 0 32 32" fill="none" xmlns="http://www.w3.org/2000/svg">
<path d="M17.5859 8.39355L17.8037 9.26758L18.4297 8.62012L22.9697 3.92578L21.1758 10.2061L20.9287 11.0713L21.7939 10.8242L28.0732 9.0293L23.3799 13.5703L22.7324 14.1963L23.6064 14.4141L29.9404 16L23.6064 17.5859L22.7324 17.8037L23.3799 18.4297L28.0732 22.9697L21.7939 21.1758L20.9287 20.9287L21.1758 21.7939L22.9697 28.0732L18.4297 23.3799L17.8037 22.7324L17.5859 23.6064L16 29.9404L14.4141 23.6064L14.1963 22.7324L13.5703 23.3799L9.0293 28.0732L10.8242 21.7939L11.0713 20.9287L10.2061 21.1758L3.92578 22.9697L8.62012 18.4297L9.26758 17.8037L8.39355 17.5859L2.05859 16L8.39355 14.4141L9.26758 14.1963L8.62012 13.5703L3.92578 9.0293L10.2061 10.8242L11.0713 11.0713L10.8242 10.2061L9.0293 3.92578L13.5703 8.62012L14.1963 9.26758L14.4141 8.39355L16 2.05859L17.5859 8.39355Z" stroke="#2F2F2F"/>
</svg>
